<svg width="1331" height="414" viewBox="0 0 1331 414" fill="none" xmlns="http://www.w3.org/2000/svg">
<path d="M1237 395H1272C1281.28 395 1290.18 391.313 1296.75 384.749C1303.31 378.185 1307 369.283 1307 360V325" stroke="#655CAE" stroke-opacity="0.88" stroke-width="9" stroke-linecap="round" stroke-linejoin="round"/>
<path d="M1307 173V138C1307 128.717 1303.31 119.815 1296.75 113.251C1290.18 106.687 1281.28 103 1272 103H1237" stroke="#655CAE" stroke-opacity="0.88" stroke-width="9" stroke-linecap="round" stroke-linejoin="round"/>
<path d="M466 395H431C421.717 395 412.815 391.313 406.251 384.749C399.687 378.185 396 369.283 396 360V325" stroke="#655CAE" stroke-opacity="0.88" stroke-width="9" stroke-linecap="round" stroke-linejoin="round"/>
<path d="M396 173V138C396 128.717 399.687 119.815 406.251 113.251C412.815 106.687 421.717 103 431 103H466" stroke="#655CAE" stroke-opacity="0.88" stroke-width="9" stroke-linecap="round" stroke-linejoin="round"/>
<path d="M196.667 50H33.3333C14.9238 50 0 64.9856 0 83.4713V380.529C0 399.014 14.9238 414 33.3333 414H196.667C215.076 414 230 399.014 230 380.529V83.4713C230 64.9856 215.076 50 196.667 50Z" fill="#E0E1E2"/>
<path d="M24.8571 380.529V83.4713C24.8571 74.5941 28.349 66.0806 34.5645 59.8035C40.78 53.5264 49.21 50 58 50H33.1429C24.3528 50 15.9228 53.5264 9.70732 59.8035C3.49183 66.0806 0 74.5941 0 83.4713V380.529C0 389.406 3.49183 397.919 9.70732 404.196C15.9228 410.474 24.3528 414 33.1429 414H58C49.21 414 40.78 410.474 34.5645 404.196C28.349 397.919 24.8571 389.406 24.8571 380.529Z" fill="#A3B9DE"/>
<path d="M93.0924 122.019C93.0888 126.962 91.6172 131.793 88.8637 135.901C86.1102 140.009 82.1983 143.211 77.6225 145.101C73.0467 146.99 68.0122 147.484 63.1554 146.519C58.2987 145.554 53.8375 143.173 50.3359 139.678C46.8342 136.183 44.4492 131.73 43.4822 126.882C42.5152 122.034 43.0096 117.009 44.903 112.442C46.7964 107.875 50.0038 103.97 54.1198 101.222C58.2358 98.4735 63.0757 97.0047 68.0278 97.0011C71.3279 96.9705 74.601 97.5966 77.6558 98.8431C80.7107 100.089 83.486 101.931 85.8196 104.26C88.1532 106.59 89.9982 109.36 91.247 112.409C92.4957 115.458 93.1231 118.725 93.0924 122.019V122.019ZM190.999 122.019C190.995 126.962 189.524 131.793 186.77 135.901C184.017 140.009 180.105 143.211 175.529 145.101C170.953 146.99 165.919 147.484 161.062 146.519C156.205 145.554 151.744 143.173 148.242 139.678C144.741 136.183 142.356 131.73 141.389 126.882C140.422 122.034 140.916 117.009 142.81 112.442C144.703 107.875 147.91 103.97 152.026 101.222C156.142 98.4735 160.982 97.0047 165.934 97.0011C169.234 96.9705 172.507 97.5966 175.562 98.8431C178.617 100.089 181.392 101.931 183.726 104.26C186.06 106.59 187.905 109.36 189.153 112.409C190.402 115.458 191.03 118.725 190.999 122.019V122.019Z" fill="#A3B9DE"/>
<path d="M92.9989 114.019C92.9953 118.962 91.5265 123.793 88.7781 127.901C86.0297 132.009 82.1252 135.211 77.5579 137.101C72.9906 138.99 67.9655 139.484 63.1178 138.519C58.2701 137.554 53.8173 135.173 50.3222 131.678C46.8271 128.183 44.4465 123.73 43.4813 118.882C42.5161 114.034 43.0096 109.009 44.8995 104.442C46.7893 99.8748 49.9907 95.9703 54.0991 93.2219C58.2074 90.4735 63.0383 89.0047 67.9811 89.0011C71.275 88.9705 74.542 89.5966 77.5911 90.8431C80.6403 92.0895 83.4104 93.9311 85.7396 96.2604C88.0689 98.5896 89.9105 101.36 91.1569 104.409C92.4033 107.458 93.0295 110.725 92.9989 114.019V114.019Z" fill="#BFACE0"/>
<path d="M90 127.177C87.8657 130.827 84.8277 133.865 81.1786 136L47 101.823C49.1398 98.1747 52.18 95.1368 55.8297 93L90 127.177Z" fill="#6750A4"/>
<path d="M93.2677 201.019C93.2641 205.962 91.7874 210.793 89.0242 214.901C86.2611 219.009 82.3355 222.211 77.7437 224.101C73.1518 225.99 68.0998 226.484 63.226 225.519C58.3522 224.554 53.8755 222.173 50.3616 218.678C46.8476 215.183 44.4542 210.73 43.4839 205.882C42.5135 201.034 43.0096 196.009 44.9097 191.442C46.8097 186.875 50.0283 182.97 54.1587 180.222C58.2892 177.474 63.146 176.005 68.1154 176.001C71.427 175.97 74.7116 176.597 77.7771 177.843C80.8426 179.089 83.6276 180.931 85.9694 183.26C88.3112 185.59 90.1627 188.36 91.4158 191.409C92.6689 194.458 93.2985 197.725 93.2677 201.019V201.019ZM191.999 201.019C191.995 205.962 190.519 210.793 187.755 214.901C184.992 219.009 181.067 222.211 176.475 224.101C171.883 225.99 166.831 226.484 161.957 225.519C157.083 224.554 152.607 222.173 149.093 218.678C145.579 215.183 143.185 210.73 142.215 205.882C141.245 201.034 141.741 196.009 143.641 191.442C145.541 186.875 148.76 182.97 152.89 180.222C157.02 177.474 161.877 176.005 166.847 176.001C170.158 175.97 173.443 176.597 176.508 177.843C179.574 179.089 182.359 180.931 184.701 183.26C187.042 185.59 188.894 188.36 190.147 191.409C191.4 194.458 192.03 197.725 191.999 201.019V201.019Z" fill="#A3B9DE"/>
<path d="M92.9989 193.019C92.9953 197.962 91.5265 202.793 88.7781 206.901C86.0297 211.009 82.1252 214.211 77.5579 216.101C72.9906 217.99 67.9655 218.484 63.1178 217.519C58.2701 216.554 53.8173 214.173 50.3222 210.678C46.8271 207.183 44.4465 202.73 43.4813 197.882C42.5161 193.034 43.0096 188.009 44.8995 183.442C46.7893 178.875 49.9907 174.97 54.0991 172.222C58.2074 169.474 63.0383 168.005 67.9811 168.001C71.275 167.97 74.542 168.597 77.5911 169.843C80.6403 171.089 83.4104 172.931 85.7396 175.26C88.0689 177.59 89.9105 180.36 91.1569 183.409C92.4033 186.458 93.0295 189.725 92.9989 193.019V193.019Z" fill="#BFACE0"/>
<path d="M90 205.177C87.8657 208.827 84.8277 211.865 81.1786 214L47 179.823C49.1398 176.175 52.18 173.137 55.8297 171L90 205.177Z" fill="#6750A4"/>
<path d="M93.9991 279.02C93.9953 283.962 92.5263 288.793 89.7779 292.901C87.0295 297.01 83.1249 300.211 78.5576 302.101C73.9903 303.99 68.9653 304.484 64.1177 303.519C59.27 302.553 54.8173 300.173 51.3222 296.678C47.8271 293.183 45.4465 288.73 44.4813 283.882C43.5161 279.035 44.0095 274.01 45.8993 269.442C47.7891 264.875 50.9904 260.971 55.0986 258.222C59.2068 255.474 64.0375 254.005 68.9804 254.001C72.2738 253.972 75.54 254.6 78.5883 255.847C81.6366 257.094 84.406 258.936 86.735 261.265C89.0639 263.594 90.9057 266.363 92.1529 269.412C93.4 272.46 94.0277 275.726 93.9991 279.02Z" fill="#A3B9DE"/>
<path d="M93.9991 270.02C93.9953 274.962 92.5263 279.793 89.7779 283.901C87.0295 288.01 83.1249 291.211 78.5576 293.101C73.9903 294.99 68.9653 295.484 64.1177 294.519C59.27 293.553 54.8173 291.173 51.3222 287.678C47.8271 284.183 45.4465 279.73 44.4813 274.882C43.5161 270.035 44.0095 265.01 45.8993 260.442C47.7891 255.875 50.9904 251.971 55.0986 249.222C59.2068 246.474 64.0375 245.005 68.9804 245.001C72.2738 244.972 75.54 245.6 78.5883 246.847C81.6366 248.094 84.406 249.936 86.735 252.265C89.0639 254.594 90.9057 257.363 92.1529 260.412C93.4 263.46 94.0277 266.726 93.9991 270.02Z" fill="#BFACE0"/>
<path d="M90 283.49C87.7267 287.058 84.5804 289.988 80.8589 292L47 258.143C49.0175 254.422 51.9484 251.276 55.5168 249L90 283.49Z" fill="#6750A4"/>
<path d="M93.9991 357.02C93.9953 361.962 92.5263 366.793 89.7779 370.901C87.0295 375.01 83.1249 378.211 78.5576 380.101C73.9903 381.99 68.9653 382.484 64.1177 381.519C59.27 380.553 54.8173 378.173 51.3222 374.678C47.8271 371.183 45.4465 366.73 44.4813 361.882C43.5161 357.035 44.0095 352.01 45.8993 347.442C47.7891 342.875 50.9904 338.971 55.0986 336.222C59.2068 333.474 64.0375 332.005 68.9804 332.001C72.2738 331.972 75.54 332.6 78.5883 333.847C81.6366 335.094 84.406 336.936 86.735 339.265C89.0639 341.594 90.9057 344.363 92.1529 347.412C93.4 350.46 94.0277 353.726 93.9991 357.02Z" fill="#A3B9DE"/>
<path d="M93.9991 349.02C93.9953 353.962 92.5263 358.793 89.7779 362.901C87.0295 367.01 83.1249 370.211 78.5576 372.101C73.9903 373.99 68.9653 374.484 64.1177 373.519C59.27 372.553 54.8173 370.173 51.3222 366.678C47.8271 363.183 45.4465 358.73 44.4813 353.882C43.5161 349.035 44.0095 344.01 45.8993 339.442C47.7891 334.875 50.9904 330.971 55.0986 328.222C59.2068 325.474 64.0375 324.005 68.9804 324.001C72.2738 323.972 75.54 324.6 78.5883 325.847C81.6366 327.094 84.406 328.936 86.735 331.265C89.0639 333.594 90.9057 336.363 92.1529 339.412C93.4 342.46 94.0277 345.726 93.9991 349.02V349.02Z" fill="#BFACE0"/>
<path d="M90 362.49C87.7267 366.058 84.5804 368.988 80.8589 371L47 337.143C49.0175 333.422 51.9484 330.276 55.5168 328L90 362.49Z" fill="#6750A4"/>
<path d="M190.999 114.019C190.995 118.962 189.526 123.793 186.778 127.901C184.03 132.009 180.125 135.211 175.558 137.101C170.991 138.99 165.966 139.484 161.118 138.519C156.27 137.554 151.817 135.173 148.322 131.678C144.827 128.183 142.446 123.73 141.481 118.882C140.516 114.034 141.01 109.009 142.899 104.442C144.789 99.8748 147.991 95.9703 152.099 93.2219C156.207 90.4735 161.038 89.0047 165.981 89.0011C169.275 88.9705 172.542 89.5966 175.591 90.8431C178.64 92.0895 181.41 93.9311 183.74 96.2604C186.069 98.5896 187.911 101.36 189.157 104.409C190.403 107.458 191.03 110.725 190.999 114.019V114.019Z" fill="#BFACE0"/>
<path d="M187 127.177C184.866 130.827 181.828 133.865 178.179 136L144 101.823C146.14 98.1747 149.18 95.1368 152.83 93L187 127.177Z" fill="#6750A4"/>
<path d="M191.999 192.02C191.995 196.962 190.526 201.793 187.778 205.901C185.029 210.01 181.125 213.211 176.558 215.101C171.99 216.99 166.965 217.484 162.118 216.519C157.27 215.553 152.817 213.173 149.322 209.678C145.827 206.183 143.447 201.73 142.481 196.882C141.516 192.035 142.01 187.01 143.899 182.442C145.789 177.875 148.99 173.971 153.099 171.222C157.207 168.474 162.038 167.005 166.98 167.001C170.274 166.972 173.54 167.6 176.588 168.847C179.637 170.094 182.406 171.936 184.735 174.265C187.064 176.594 188.906 179.363 190.153 182.412C191.4 185.46 192.028 188.726 191.999 192.02V192.02Z" fill="#BFACE0"/>
<path d="M188 205.49C185.727 209.058 182.58 211.988 178.859 214L145 180.143C147.018 176.422 149.948 173.276 153.517 171L188 205.49Z" fill="#6750A4"/>
<path d="M190.999 279.019C190.995 283.962 189.526 288.793 186.778 292.901C184.03 297.009 180.125 300.211 175.558 302.101C170.991 303.99 165.966 304.484 161.118 303.519C156.27 302.554 151.817 300.173 148.322 296.678C144.827 293.183 142.446 288.73 141.481 283.882C140.516 279.034 141.01 274.009 142.899 269.442C144.789 264.875 147.991 260.97 152.099 258.222C156.207 255.474 161.038 254.005 165.981 254.001C169.275 253.97 172.542 254.597 175.591 255.843C178.64 257.089 181.41 258.931 183.74 261.26C186.069 263.59 187.911 266.36 189.157 269.409C190.403 272.458 191.03 275.725 190.999 279.019V279.019Z" fill="#A3B9DE"/>
<path d="M190.999 271.019C190.995 275.962 189.526 280.793 186.778 284.901C184.03 289.009 180.125 292.211 175.558 294.101C170.991 295.99 165.966 296.484 161.118 295.519C156.27 294.554 151.817 292.173 148.322 288.678C144.827 285.183 142.446 280.73 141.481 275.882C140.516 271.034 141.01 266.009 142.899 261.442C144.789 256.875 147.991 252.97 152.099 250.222C156.207 247.474 161.038 246.005 165.981 246.001C169.275 245.97 172.542 246.597 175.591 247.843C178.64 249.089 181.41 250.931 183.74 253.26C186.069 255.59 187.911 258.36 189.157 261.409C190.403 264.458 191.03 267.725 190.999 271.019V271.019Z" fill="#BFACE0"/>
<path d="M187 283.972C184.866 287.706 181.828 290.816 178.179 293L144 258.028C146.14 254.295 149.18 251.186 152.83 249L187 283.972Z" fill="#6750A4"/>
<path d="M190.999 358.019C190.995 362.962 189.526 367.793 186.778 371.901C184.03 376.009 180.125 379.211 175.558 381.101C170.991 382.99 165.966 383.484 161.118 382.519C156.27 381.554 151.817 379.173 148.322 375.678C144.827 372.183 142.446 367.73 141.481 362.882C140.516 358.034 141.01 353.009 142.899 348.442C144.789 343.875 147.991 339.97 152.099 337.222C156.207 334.474 161.038 333.005 165.981 333.001C169.275 332.97 172.542 333.597 175.591 334.843C178.64 336.089 181.41 337.931 183.74 340.26C186.069 342.59 187.911 345.36 189.157 348.409C190.403 351.458 191.03 354.725 190.999 358.019V358.019Z" fill="#A3B9DE"/>
<path d="M190.999 349.019C190.995 353.962 189.526 358.793 186.778 362.901C184.03 367.009 180.125 370.211 175.558 372.101C170.991 373.99 165.966 374.484 161.118 373.519C156.27 372.554 151.817 370.173 148.322 366.678C144.827 363.183 142.446 358.73 141.481 353.882C140.516 349.034 141.01 344.009 142.899 339.442C144.789 334.875 147.991 330.97 152.099 328.222C156.207 325.474 161.038 324.005 165.981 324.001C169.275 323.97 172.542 324.597 175.591 325.843C178.64 327.089 181.41 328.931 183.74 331.26C186.069 333.59 187.911 336.36 189.157 339.409C190.403 342.458 191.03 345.725 190.999 349.019V349.019Z" fill="#BFACE0"/>
<path d="M187 362.177C184.866 365.827 181.828 368.865 178.179 371L144 336.823C146.14 333.175 149.18 330.137 152.83 328L187 362.177Z" fill="#6750A4"/>
<path d="M298.551 81.2487V24H224.449V81.2487C224.449 87.3815 222.247 93.3091 218.245 97.9463C214.244 102.583 208.711 105.62 202.659 106.5C192.756 107.939 183.702 112.908 177.153 120.497C170.604 128.085 167 137.786 167 147.822V372.227C167 383.301 171.386 393.921 179.193 401.751C187 409.582 197.589 413.981 208.63 413.981H314.37C336.675 414.686 355.246 396.061 356 372.227V147.822C356 137.786 352.396 128.085 345.847 120.497C339.298 112.908 330.244 107.939 320.341 106.5C314.289 105.62 308.756 102.583 304.755 97.9463C300.753 93.3091 298.551 87.3815 298.551 81.2487Z" fill="#BFACE0"/>
<path d="M192.036 372.229V147.823C192.036 137.786 195.648 128.086 202.212 120.497C208.776 112.909 217.852 107.94 227.778 106.5C233.843 105.62 239.389 102.584 243.4 97.9468C247.41 93.3096 249.618 87.3819 249.618 81.249V24H224.582V81.249C224.582 87.3819 222.375 93.3096 218.364 97.9468C214.353 102.584 208.807 105.62 202.742 106.5C192.816 107.94 183.74 112.909 177.176 120.497C170.613 128.086 167 137.786 167 147.823V372.229C167 383.303 171.396 393.923 179.221 401.754C187.047 409.584 197.66 413.983 208.726 413.983H233.762C222.695 413.983 212.082 409.584 204.257 401.754C196.432 393.923 192.036 383.303 192.036 372.229V372.229ZM314.711 413.983C315.479 414.007 316.241 414.004 317 413.983H314.711Z" fill="#6750A4"/>
<path d="M312 12.5806V52H208V12.5806C208 9.24405 209.315 6.04412 211.655 3.68479C213.996 1.32546 217.17 1.3713e-06 220.48 1.3713e-06H299.52C301.159 -0.000770257 302.782 0.324111 304.297 0.956075C305.811 1.58804 307.187 2.51469 308.346 3.68307C309.505 4.85144 310.425 6.23863 311.052 7.76533C311.678 9.29203 312.001 10.9283 312 12.5806V12.5806Z" fill="#D9D3E3"/>
<path d="M245 0H220.333C217.062 0 213.925 1.32546 211.612 3.68479C209.299 6.04411 208 9.24405 208 12.5806V52H232.667V12.5806C232.667 9.24405 233.966 6.04411 236.279 3.68479C238.592 1.32546 241.729 0 245 0V0Z" fill="#825F8B"/>
<path d="M167 176H356V328H167V176Z" fill="#D9D3E3"/>
<path d="M167 176.717H192.016V328H167V176.717ZM267.899 0V42.1503C267.899 43.8128 267.24 45.4073 266.067 46.5829C264.894 47.7585 263.304 48.4189 261.645 48.4189C259.986 48.4189 258.396 47.7585 257.223 46.5829C256.05 45.4073 255.391 43.8128 255.391 42.1503V0H267.899ZM295 0V42.1503C295 43.8128 294.341 45.4073 293.168 46.5829C291.995 47.7585 290.405 48.4189 288.746 48.4189C287.087 48.4189 285.496 47.7585 284.324 46.5829C283.151 45.4073 282.492 43.8128 282.492 42.1503V0H295Z" fill="#825F8B"/>
<path d="M215.518 42H306.482C309.802 42 312.986 43.317 315.334 45.6612C317.681 48.0054 319 51.1848 319 54.5C319 57.8152 317.681 60.9946 315.334 63.3388C312.986 65.683 309.802 67 306.482 67H215.518C212.198 67 209.014 65.683 206.666 63.3388C204.319 60.9946 203 57.8152 203 54.5C203 51.1848 204.319 48.0054 206.666 45.6612C209.014 43.317 212.198 42 215.518 42Z" fill="#825F8B"/>
<path d="M228.333 54.5C228.333 51.1848 229.668 48.0054 232.043 45.6612C234.419 43.317 237.641 42 241 42H215.667C212.307 42 209.085 43.317 206.71 45.6612C204.335 48.0054 203 51.1848 203 54.5C203 57.8152 204.335 60.9946 206.71 63.3388C209.085 65.683 212.307 67 215.667 67H241C237.641 67 234.419 65.683 232.043 63.3388C229.668 60.9946 228.333 57.8152 228.333 54.5Z" fill="#593363"/>
<g clip-path="url(#clip0_404_1325)">
<path d="M257.625 189H210V236.25H257.625V189ZM249.688 228.375H217.938V196.875H249.688V228.375Z" fill="black"/>
<path d="M225.875 204.75H241.75V220.5H225.875V204.75ZM210 315H257.625V267.75H210V315ZM217.938 275.625H249.688V307.125H217.938V275.625Z" fill="black"/>
<path d="M225.875 283.5H241.75V299.25H225.875V283.5ZM289.375 189V236.25H337V189H289.375ZM329.062 228.375H297.312V196.875H329.062V228.375Z" fill="black"/>
<path d="M305.25 204.75H321.125V220.5H305.25V204.75ZM225.875 244.125H210V259.875H233.812V252H225.875V244.125ZM265.562 259.875H281.438V275.625H265.562V259.875ZM233.812 244.125H249.688V252H233.812V244.125ZM281.438 283.5H265.562V291.375H273.5V299.25H281.438V291.375V283.5ZM257.625 244.125V252H249.688V259.875H265.562V244.125H257.625ZM273.5 220.5H281.438V236.25H273.5V220.5ZM281.438 252V259.875H297.312V244.125H273.5V252H281.438ZM265.562 236.25H273.5V244.125H265.562V236.25ZM281.438 299.25H297.312V315H281.438V299.25ZM265.562 299.25H273.5V315H265.562V299.25ZM281.438 275.625H289.375V283.5H281.438V275.625ZM281.438 212.625V196.875H273.5V189H265.562V220.5H273.5V212.625H281.438ZM305.25 299.25H313.188V315H305.25V299.25ZM305.25 283.5H321.125V291.375H305.25V283.5ZM297.312 291.375H305.25V299.25H297.312V291.375ZM289.375 283.5H297.312V291.375H289.375V283.5ZM321.125 267.75V275.625H329.062V283.5H337V267.75H329.062H321.125ZM329.062 291.375H321.125V315H337V299.25H329.062V291.375ZM289.375 267.75V275.625H313.188V259.875H297.312V267.75H289.375ZM305.25 244.125V252H321.125V259.875H337V244.125H321.125H305.25Z" fill="black"/>
</g>
<path d="M624.21 316.2C624.21 317.933 623.41 318.8 621.81 318.8C616.877 318.8 612.01 318.667 607.21 318.4C602.41 318.133 597.61 318 592.81 318C590.543 318 588.277 318.067 586.01 318.2C583.743 318.2 581.477 318.267 579.21 318.4C576.943 318.533 574.677 318.733 572.41 319C570.277 319.133 568.077 319.2 565.81 319.2C564.61 319.2 563.81 318.867 563.41 318.2C563.143 317.4 563.01 316.533 563.01 315.6C563.01 315.067 563.143 314.533 563.41 314C563.677 313.333 564.143 313 564.81 313C565.21 312.867 565.81 312.8 566.61 312.8C567.543 312.8 568.477 312.867 569.41 313C570.477 313 571.477 313 572.41 313C574.277 313 576.343 312.8 578.61 312.4C581.01 312 582.343 310.533 582.61 308C582.743 307.6 582.743 307.2 582.61 306.8C582.61 306.4 582.61 306 582.61 305.6V183H581.41C576.343 196.733 571.077 210.4 565.61 224C560.143 237.467 554.677 250.933 549.21 264.4C547.077 269.867 544.877 275.333 542.61 280.8C540.343 286.267 538.077 291.733 535.81 297.2C534.877 299.6 533.943 302.067 533.01 304.6C532.21 307.133 531.21 309.533 530.01 311.8C529.077 313.267 527.61 314 525.61 314C523.743 314 522.343 313.267 521.41 311.8C520.343 309.8 519.343 307.667 518.41 305.4C517.61 303.133 516.743 300.933 515.81 298.8C513.81 294.133 511.877 289.533 510.01 285C508.143 280.467 506.277 275.933 504.41 271.4C498.277 256.733 492.143 242.133 486.01 227.6C480.01 212.933 474.01 198.333 468.01 183.8C468.01 204.467 468.01 225.2 468.01 246C468.143 266.667 468.21 287.333 468.21 308C468.21 310.667 469.343 312.2 471.61 312.6C474.01 313 476.21 313.2 478.21 313.2C479.543 313.2 480.877 313.133 482.21 313C483.543 312.867 484.877 312.8 486.21 312.8C486.877 312.8 487.21 313.2 487.21 314C487.21 314.667 487.143 315.6 487.01 316.8C486.877 318 486.343 318.6 485.41 318.6C481.81 318.6 478.143 318.533 474.41 318.4C470.81 318.133 467.21 318 463.61 318C460.143 318 456.61 318.133 453.01 318.4C449.543 318.533 446.077 318.6 442.61 318.6C442.477 318.333 442.343 318.133 442.21 318C442.21 317.733 442.143 317.533 442.01 317.4V315.6C442.01 314.267 442.277 313.533 442.81 313.4C443.343 313.267 444.077 313.2 445.01 313.2C446.077 313.2 447.077 313.267 448.01 313.4C448.943 313.4 449.877 313.4 450.81 313.4C452.81 313.4 454.943 313.133 457.21 312.6C459.477 312.067 460.677 310.533 460.81 308C461.077 305.867 461.143 303.733 461.01 301.6C461.01 299.333 461.01 297.133 461.01 295C461.01 290.733 460.943 286.467 460.81 282.2C460.81 277.8 460.81 273.467 460.81 269.2C460.81 254.933 460.877 240.733 461.01 226.6C461.277 212.467 461.41 198.333 461.41 184.2C461.41 181.667 460.21 180 457.81 179.2C455.41 178.4 453.21 178 451.21 178C450.01 178 448.81 178.067 447.61 178.2C446.41 178.333 445.21 178.4 444.01 178.4C443.21 178.4 442.677 178 442.41 177.2C442.143 176.4 442.01 175.733 442.01 175.2C442.01 173.333 442.743 172.4 444.21 172.4C447.677 172.4 451.21 172.533 454.81 172.8C458.41 172.933 461.943 173 465.41 173C472.21 173 479.01 172.8 485.81 172.4L533.21 286.4C540.543 267.333 548.21 248.467 556.21 229.8C564.21 211 571.61 192 578.41 172.8C581.743 172.933 585.01 173.067 588.21 173.2C591.543 173.2 594.877 173.2 598.21 173.2C602.21 173.2 606.143 173.067 610.01 172.8C614.01 172.4 618.01 172.2 622.01 172.2C622.81 172.2 623.277 172.6 623.41 173.4C623.544 174.2 623.61 174.867 623.61 175.4C623.61 175.933 623.544 176.6 623.41 177.4C623.277 178.2 622.81 178.6 622.01 178.6C620.277 178.6 618.61 178.533 617.01 178.4C615.41 178.267 613.81 178.2 612.21 178.2C610.61 178.2 608.61 178.6 606.21 179.4C603.943 180.067 602.81 181.4 602.81 183.4V306.4C602.81 309.467 603.677 311.4 605.41 312.2C607.277 312.867 609.61 313.2 612.41 313.2C614.01 313.2 615.61 313.133 617.21 313C618.81 312.867 620.477 312.8 622.21 312.8C623.277 312.8 623.877 313.2 624.01 314C624.143 314.8 624.21 315.533 624.21 316.2ZM708.463 248.8C708.33 243.333 707.863 238.133 707.063 233.2C706.263 228.133 704.33 224 701.263 220.8C698.197 217.467 693.197 215.8 686.263 215.8C679.997 215.8 674.863 217.533 670.863 221C666.997 224.333 663.997 228.6 661.863 233.8C659.73 238.867 658.13 244.067 657.063 249.4C660.397 249.533 663.663 249.667 666.863 249.8C670.063 249.8 673.263 249.8 676.463 249.8C681.797 249.8 687.13 249.733 692.463 249.6C697.797 249.333 703.13 249.067 708.463 248.8ZM731.463 294.6C731.463 295.267 731.33 295.667 731.063 295.8C730.663 297.133 729.663 298.733 728.063 300.6C726.597 302.467 724.93 304.267 723.063 306C721.197 307.6 719.663 308.8 718.463 309.6C714.063 312.667 709.063 315.133 703.463 317C697.997 318.867 692.53 319.8 687.063 319.8C682.53 319.8 677.463 319.067 671.863 317.6C666.397 316.133 661.73 314.133 657.863 311.6C650.397 306.667 644.93 300.2 641.463 292.2C637.997 284.2 636.263 275.867 636.263 267.2C636.263 257.333 638.197 248.2 642.063 239.8C645.93 231.4 652.13 224.6 660.663 219.4C664.53 217.133 668.863 215.267 673.663 213.8C678.463 212.2 683.063 211.4 687.463 211.4C695.33 211.4 702.263 213 708.263 216.2C714.263 219.4 718.93 223.933 722.263 229.8C725.73 235.533 727.463 242.4 727.463 250.4C727.463 252.667 726.93 254.133 725.863 254.8C724.93 255.467 723.463 255.8 721.463 255.8C718.797 255.8 716.13 255.733 713.463 255.6C710.797 255.467 708.13 255.333 705.463 255.2C701.73 254.933 697.997 254.8 694.263 254.8C690.663 254.8 686.997 254.8 683.263 254.8C678.73 254.8 674.197 254.8 669.663 254.8C665.13 254.8 660.597 254.933 656.063 255.2C655.93 257.333 655.797 259.4 655.663 261.4C655.53 263.4 655.463 265.467 655.463 267.6C655.463 272.533 656.063 277.667 657.263 283C658.463 288.2 660.397 293.067 663.063 297.6C665.73 302 669.13 305.6 673.263 308.4C677.397 311.067 682.397 312.4 688.263 312.4C694.263 312.4 699.997 311.467 705.463 309.6C710.93 307.733 715.93 304.733 720.463 300.6C721.663 299.4 722.73 298.133 723.663 296.8C724.73 295.333 725.863 294.067 727.063 293C727.73 292.333 728.463 292 729.263 292C729.93 292 730.463 292.267 730.863 292.8C731.263 293.333 731.463 293.933 731.463 294.6ZM818.648 245.6C818.648 241.067 817.714 236.8 815.848 232.8C813.981 228.8 811.314 225.533 807.848 223C804.381 220.467 800.181 219.2 795.248 219.2C788.848 219.2 783.581 220.733 779.448 223.8C775.448 226.867 772.248 230.867 769.848 235.8C767.581 240.6 765.981 245.8 765.048 251.4C764.248 257 763.848 262.333 763.848 267.4C763.848 271.933 764.248 276.8 765.048 282C765.848 287.2 767.248 292.067 769.248 296.6C771.381 301.133 774.314 304.867 778.048 307.8C781.781 310.6 786.514 312 792.248 312C797.048 312 801.448 310.533 805.448 307.6C809.448 304.533 812.648 300.733 815.048 296.2C817.448 291.667 818.648 287.2 818.648 282.8V245.6ZM855.848 311C855.848 311.667 855.514 312.333 854.848 313C854.181 313.667 853.581 314.2 853.048 314.6C851.314 315.933 848.781 317.067 845.448 318C842.248 318.933 839.514 319.4 837.248 319.4C833.781 319.4 830.914 318.4 828.648 316.4C826.381 314.4 824.514 311.933 823.048 309C821.714 306.067 820.514 303.2 819.448 300.4C816.514 305.067 812.514 309.267 807.448 313C802.381 316.6 796.981 318.4 791.248 318.4C787.381 318.4 783.381 318.133 779.248 317.6C775.248 316.933 771.514 315.533 768.048 313.4C760.448 308.6 754.648 302.133 750.648 294C746.781 285.733 744.848 277.267 744.848 268.6C744.848 258.2 746.714 248.867 750.448 240.6C754.181 232.2 759.714 225.6 767.048 220.8C774.514 215.867 783.714 213.4 794.648 213.4C797.048 213.4 799.714 213.867 802.648 214.8C805.581 215.733 808.448 216.933 811.248 218.4C814.181 219.733 816.514 221.133 818.248 222.6V183.8C818.248 179.533 817.114 177.133 814.848 176.6C812.714 175.933 809.848 175.6 806.248 175.6C805.048 175.6 803.848 175.667 802.648 175.8C801.448 175.8 800.248 175.8 799.048 175.8C798.514 175.8 797.981 175.6 797.448 175.2C797.048 174.8 796.848 174.333 796.848 173.8C796.848 172.867 797.181 172.267 797.848 172C798.114 171.733 798.381 171.6 798.648 171.6C799.048 171.6 799.448 171.533 799.848 171.4C802.648 170.867 805.448 170.467 808.248 170.2C811.181 169.8 814.114 169.333 817.048 168.8C819.981 168.267 822.848 167.733 825.648 167.2C828.448 166.533 831.248 165.8 834.048 165C834.181 165 834.381 164.933 834.648 164.8C835.048 164.667 835.314 164.6 835.448 164.6C836.114 164.6 836.514 164.867 836.648 165.4C836.781 165.933 836.848 166.467 836.848 167C836.848 183.533 836.781 200 836.648 216.4C836.514 232.8 836.448 249.267 836.448 265.8V295.6C836.448 297.867 836.714 300.2 837.248 302.6C837.781 305 838.781 307 840.248 308.6C841.848 310.2 844.048 311 846.848 311C848.181 311 849.448 310.733 850.648 310.2C851.848 309.667 853.114 309.4 854.448 309.4C855.381 309.4 855.848 309.933 855.848 311Z" fill="#6750A4"/>
<path d="M968.337 281.4C968.337 289 966.603 295.333 963.137 300.4C959.67 305.467 955.07 309.533 949.337 312.6C943.737 315.533 937.603 317.667 930.937 319C924.403 320.2 918.003 320.8 911.737 320.8C903.603 320.8 895.937 319.533 888.737 317C885.803 315.933 882.937 314.8 880.137 313.6C877.337 312.267 874.403 311.2 871.337 310.4C870.803 306.133 869.87 301.467 868.537 296.4C867.337 291.333 866.737 286.733 866.737 282.6C866.737 280.733 867.003 279.333 867.537 278.4C868.203 277.333 869.603 276.8 871.737 276.8C873.603 276.8 874.803 277.267 875.337 278.2C875.87 279 876.27 280.133 876.537 281.6C877.07 283.467 877.537 285.333 877.937 287.2C878.337 288.933 878.803 290.733 879.337 292.6C882.003 300.6 885.937 306.2 891.137 309.4C896.47 312.6 903.27 314.2 911.537 314.2C918.337 314.2 924.403 313.267 929.737 311.4C935.203 309.4 939.47 306.2 942.537 301.8C945.737 297.4 947.337 291.533 947.337 284.2C947.337 278.467 945.403 273.333 941.537 268.8C937.67 264.133 933.403 260.467 928.737 257.8C927.67 257.133 926.537 256.533 925.337 256C924.137 255.467 922.937 254.933 921.737 254.4C917.603 252.267 913.403 250.133 909.137 248C905.003 245.867 900.803 243.8 896.537 241.8C892.403 239.667 888.137 237 883.737 233.8C879.47 230.467 875.803 226.667 872.737 222.4C869.803 218.133 868.337 213.467 868.337 208.4C868.337 199.867 870.603 192.8 875.137 187.2C879.67 181.6 885.47 177.4 892.537 174.6C899.603 171.8 906.937 170.4 914.537 170.4C920.003 170.4 924.87 171.067 929.137 172.4C933.537 173.733 937.87 175.133 942.137 176.6C946.403 177.933 951.07 178.867 956.137 179.4C956.537 183.4 956.937 187.4 957.337 191.4C957.737 195.4 958.337 199.4 959.137 203.4C959.27 203.933 959.337 204.467 959.337 205C959.47 205.533 959.537 206.067 959.537 206.6C959.537 208.733 958.803 210.133 957.337 210.8C956.003 211.333 954.47 211.6 952.737 211.6C951.003 211.6 950.07 211.267 949.937 210.6C949.803 209.933 949.603 208.933 949.337 207.6C947.603 196.933 943.937 188.933 938.337 183.6C932.737 178.133 924.337 175.4 913.137 175.4C904.87 175.4 898.403 177.6 893.737 182C889.203 186.4 886.937 192.8 886.937 201.2C886.937 206.8 888.403 211.533 891.337 215.4C894.27 219.267 898.137 222.667 902.937 225.6C907.87 228.4 913.203 231.067 918.937 233.6C924.803 236.133 930.603 238.733 936.337 241.4C942.07 244.067 947.337 247.2 952.137 250.8C957.07 254.267 961.003 258.467 963.937 263.4C966.87 268.333 968.337 274.333 968.337 281.4ZM1048.29 295.6C1047.75 289.6 1047.42 283.6 1047.29 277.6C1047.29 271.467 1047.22 265.333 1047.09 259.2H1044.29C1040.15 259.2 1035.55 259.867 1030.49 261.2C1025.55 262.4 1020.82 264.267 1016.29 266.8C1011.75 269.333 1008.02 272.533 1005.09 276.4C1002.29 280.133 1000.89 284.467 1000.89 289.4C1000.89 295.8 1002.69 300.667 1006.29 304C1009.89 307.2 1014.75 308.8 1020.89 308.8C1023.82 308.8 1027.02 308.133 1030.49 306.8C1033.95 305.333 1037.29 303.6 1040.49 301.6C1043.69 299.6 1046.29 297.6 1048.29 295.6ZM1083.29 308.4C1083.29 308.933 1083.22 309.333 1083.09 309.6C1081.75 312.533 1079.49 314.8 1076.29 316.4C1073.22 317.867 1070.15 318.6 1067.09 318.6C1061.49 318.6 1057.42 317 1054.89 313.8C1052.49 310.467 1050.55 306.4 1049.09 301.6C1044.02 306.267 1038.42 310.2 1032.29 313.4C1026.15 316.467 1019.55 318 1012.49 318C1007.55 318 1002.89 317.067 998.487 315.2C994.22 313.2 990.753 310.333 988.087 306.6C985.42 302.867 984.087 298.333 984.087 293C984.087 287.4 985.487 282.6 988.287 278.6C991.22 274.467 994.887 271 999.287 268.2C1003.82 265.267 1008.62 262.933 1013.69 261.2C1018.89 259.333 1023.75 257.933 1028.29 257C1031.35 256.333 1034.49 255.733 1037.69 255.2C1040.89 254.667 1044.02 254.133 1047.09 253.6C1047.09 249.867 1046.89 245.533 1046.49 240.6C1046.22 235.667 1045.22 231.6 1043.49 228.4C1041.75 225.333 1039.42 222.6 1036.49 220.2C1033.55 217.8 1030.29 216.6 1026.69 216.6C1020.55 216.6 1015.75 218.2 1012.29 221.4C1008.82 224.6 1006.35 229.133 1004.89 235C1004.75 235.667 1004.62 236.4 1004.49 237.2C1004.49 237.867 1004.42 238.533 1004.29 239.2C1004.15 240 1003.62 240.733 1002.69 241.4C1001.89 241.933 1001.02 242.2 1000.09 242.2C997.553 242.2 995.22 241.6 993.087 240.4C991.087 239.2 990.087 237.2 990.087 234.4C990.087 232.8 990.353 231.4 990.887 230.2C992.62 226.067 995.42 222.667 999.287 220C1003.15 217.2 1007.42 215.067 1012.09 213.6C1016.89 212.133 1021.35 211.4 1025.49 211.4C1032.69 211.4 1039.22 212.733 1045.09 215.4C1050.95 218.067 1055.62 222 1059.09 227.2C1062.69 232.267 1064.49 238.667 1064.49 246.4C1064.49 255.067 1064.42 263.8 1064.29 272.6C1064.29 281.4 1064.55 290.2 1065.09 299C1065.22 301.933 1065.82 304.533 1066.89 306.8C1067.95 308.933 1070.15 310 1073.49 310C1075.22 310 1077.02 309.6 1078.89 308.8C1080.89 307.867 1082.15 307.4 1082.69 307.4C1083.09 307.4 1083.29 307.733 1083.29 308.4ZM1166.48 192.4C1166.48 193.467 1166.01 194.467 1165.08 195.4C1164.14 196.333 1163.14 196.8 1162.08 196.8C1160.21 196.8 1158.94 196 1158.28 194.4C1157.61 192.533 1156.88 190.667 1156.08 188.8C1155.41 186.933 1154.74 185.067 1154.08 183.2C1153.01 180.533 1151.48 178.4 1149.48 176.8C1147.61 175.067 1145.14 174.2 1142.08 174.2C1137.01 174.2 1133.21 176 1130.68 179.6C1128.28 183.067 1127.08 187.133 1127.08 191.8C1127.08 196.333 1127.08 200.867 1127.08 205.4C1127.08 209.933 1127.14 214.533 1127.28 219.2C1131.54 219.2 1135.81 219.2 1140.08 219.2C1144.34 219.067 1148.61 219 1152.88 219C1153.81 219 1154.48 219.4 1154.88 220.2C1155.41 220.867 1155.68 221.6 1155.68 222.4C1155.68 223.333 1155.48 224.133 1155.08 224.8C1154.68 225.467 1153.94 225.8 1152.88 225.8C1150.21 225.8 1147.54 225.8 1144.88 225.8C1142.21 225.667 1139.54 225.6 1136.88 225.6H1127.88V303C1127.88 305.933 1128.54 308.6 1129.88 311C1131.21 313.267 1133.54 314.4 1136.88 314.4C1138.34 314.4 1139.74 314.333 1141.08 314.2C1142.54 313.933 1143.94 313.8 1145.28 313.8C1146.08 313.8 1146.61 314.2 1146.88 315C1147.28 315.667 1147.48 316.333 1147.48 317C1147.48 318.467 1146.74 319.2 1145.28 319.2C1140.74 319.2 1136.14 319.133 1131.48 319C1126.94 318.733 1122.41 318.6 1117.88 318.6C1115.34 318.6 1112.88 318.6 1110.48 318.6C1108.08 318.6 1105.68 318.667 1103.28 318.8C1101.54 318.933 1099.88 319.067 1098.28 319.2C1096.68 319.333 1095.01 319.4 1093.28 319.4C1091.28 319.4 1090.28 318.6 1090.28 317C1090.28 315.533 1090.74 314.733 1091.68 314.6C1092.61 314.333 1093.54 314.2 1094.48 314.2C1095.41 314.2 1096.28 314.267 1097.08 314.4C1098.01 314.4 1098.94 314.4 1099.88 314.4C1103.74 314.4 1106.21 313.333 1107.28 311.2C1108.48 309.067 1109.08 306.333 1109.08 303V225.4H1097.68C1096.74 225.4 1095.68 225.533 1094.48 225.8C1093.41 225.933 1092.48 226.267 1091.68 226.8C1091.54 226.933 1091.34 227.133 1091.08 227.4C1090.94 227.667 1090.74 227.8 1090.48 227.8C1089.41 227.8 1088.88 227.4 1088.88 226.6C1088.88 226.333 1089.01 225.333 1089.28 223.6C1089.68 221.733 1089.94 220.733 1090.08 220.6C1090.34 219.933 1090.68 219.6 1091.08 219.6C1091.48 219.467 1091.94 219.4 1092.48 219.4C1093.41 219.4 1094.28 219.467 1095.08 219.6C1095.88 219.6 1096.74 219.6 1097.68 219.6H1108.68C1108.68 216.8 1108.68 214 1108.68 211.2C1108.68 208.4 1108.68 205.6 1108.68 202.8C1108.68 190.533 1111.88 182 1118.28 177.2C1124.81 172.267 1133.81 169.8 1145.28 169.8C1148.74 169.8 1152.08 170.533 1155.28 172C1158.48 173.333 1161.81 174 1165.28 174C1165.41 177.067 1165.61 180.133 1165.88 183.2C1166.28 186.267 1166.48 189.333 1166.48 192.4ZM1244.21 248.8C1244.07 243.333 1243.61 238.133 1242.81 233.2C1242.01 228.133 1240.07 224 1237.01 220.8C1233.94 217.467 1228.94 215.8 1222.01 215.8C1215.74 215.8 1210.61 217.533 1206.61 221C1202.74 224.333 1199.74 228.6 1197.61 233.8C1195.47 238.867 1193.87 244.067 1192.81 249.4C1196.14 249.533 1199.41 249.667 1202.61 249.8C1205.81 249.8 1209.01 249.8 1212.21 249.8C1217.54 249.8 1222.87 249.733 1228.21 249.6C1233.54 249.333 1238.87 249.067 1244.21 248.8ZM1267.21 294.6C1267.21 295.267 1267.07 295.667 1266.81 295.8C1266.41 297.133 1265.41 298.733 1263.81 300.6C1262.34 302.467 1260.67 304.267 1258.81 306C1256.94 307.6 1255.41 308.8 1254.21 309.6C1249.81 312.667 1244.81 315.133 1239.21 317C1233.74 318.867 1228.27 319.8 1222.81 319.8C1218.27 319.8 1213.21 319.067 1207.61 317.6C1202.14 316.133 1197.47 314.133 1193.61 311.6C1186.14 306.667 1180.67 300.2 1177.21 292.2C1173.74 284.2 1172.01 275.867 1172.01 267.2C1172.01 257.333 1173.94 248.2 1177.81 239.8C1181.67 231.4 1187.87 224.6 1196.41 219.4C1200.27 217.133 1204.61 215.267 1209.41 213.8C1214.21 212.2 1218.81 211.4 1223.21 211.4C1231.07 211.4 1238.01 213 1244.01 216.2C1250.01 219.4 1254.67 223.933 1258.01 229.8C1261.47 235.533 1263.21 242.4 1263.21 250.4C1263.21 252.667 1262.67 254.133 1261.61 254.8C1260.67 255.467 1259.21 255.8 1257.21 255.8C1254.54 255.8 1251.87 255.733 1249.21 255.6C1246.54 255.467 1243.87 255.333 1241.21 255.2C1237.47 254.933 1233.74 254.8 1230.01 254.8C1226.41 254.8 1222.74 254.8 1219.01 254.8C1214.47 254.8 1209.94 254.8 1205.41 254.8C1200.87 254.8 1196.34 254.933 1191.81 255.2C1191.67 257.333 1191.54 259.4 1191.41 261.4C1191.27 263.4 1191.21 265.467 1191.21 267.6C1191.21 272.533 1191.81 277.667 1193.01 283C1194.21 288.2 1196.14 293.067 1198.81 297.6C1201.47 302 1204.87 305.6 1209.01 308.4C1213.14 311.067 1218.14 312.4 1224.01 312.4C1230.01 312.4 1235.74 311.467 1241.21 309.6C1246.67 307.733 1251.67 304.733 1256.21 300.6C1257.41 299.4 1258.47 298.133 1259.41 296.8C1260.47 295.333 1261.61 294.067 1262.81 293C1263.47 292.333 1264.21 292 1265.01 292C1265.67 292 1266.21 292.267 1266.61 292.8C1267.01 293.333 1267.21 293.933 1267.21 294.6Z" fill="#BFACE0"/>
<defs>
<clipPath id="clip0_404_1325">
<rect width="127" height="126" fill="white" transform="translate(210 189)"/>
</clipPath>
</defs>
</svg>
